<svg version="1.0" xmlns="http://www.w3.org/2000/svg" width="498.667" height="498.667" viewBox="0 0 374 374"><path d="M0 187v187h374V0H0v187zm224.1 20c1.5 0 3.1-.5 3.4-1 .4-.7 1.1-.8 1.8-.1.7.5 2.3 1.1 3.7 1.3 1.4.1 2.6 1.1 2.8 2 .3 1.4-.4 1.8-3 1.9-1.8.1-2.5.3-1.5.6 1.3.3 1.7 1.5 1.7 5.4v4.9h-4c-2.2 0-4 .4-4 1 0 .5 2.5 1 5.5 1 4.2 0 5.5.3 5.5 1.5s-1.3 1.5-5.5 1.5c-4.8 0-5.5.2-5.5 2 0 1.1-.5 2-1.1 2-.6 0-1.3-.9-1.6-2-.4-1.7-1.4-2-5.4-2-3.7 0-4.9-.4-4.9-1.5s1.2-1.5 5-1.5c2.8 0 5-.5 5-1 0-.6-1.6-1-3.5-1H215v-4.9c0-3.9.4-5.1 1.8-5.4.9-.3.2-.5-1.6-.6-2.6-.1-3.3-.5-3-1.9.2-.9 1.4-1.8 2.8-2 1.4-.2 2.9-.8 3.5-1.3.5-.5 1.3-.5 1.9.1.6.5 2.2 1 3.7 1zm27.9 1.1c0 2.5 2.2 2.5 3.8-.1.7-1.1 1.9-2 2.8-2 1.1 0 1.3.6.9 2-.5 1.6-.2 2 1.5 2 1.8 0 2.1.5 1.8 3.2-.2 2.1-.8 3.3-1.8 3.3-.8 0-1.7.9-2 2-.4 1.4-1.6 2.1-4 2.4-3.5.5-3.4.5 1 1 3.1.4 4.5 1.1 4.5 2.1s-1.4 1.6-4.5 1.9l-4.5.5 5.5.5c4 .4 5.5 1 5.5 2.1 0 1.2-1.9 1.5-11.5 1.5s-11.5-.3-11.5-1.5c0-1.1 1.5-1.7 5-2.1l5-.5-4-.5c-2.7-.3-4-.9-4-1.9 0-1 1.4-1.7 4-2.1 3.9-.6 3.9-.6.6-.8-3.2-.1-3.3-.2-2.9-4.1.4-4.2-.6-5.5-1.5-2-.7 2.8-2.5 2.5-3.3-.4-.7-3 .1-4.6 2.6-4.6 1.3 0 1.7-.5 1.3-2-.3-1.1 0-2 .6-2s1.6.9 2.3 2c1.6 2.5 3.8 2.6 3.8.2 0-1 .3-2.2.6-2.5 1.1-1 2.4.3 2.4 2.4zm-136.5 4.5c-.4 2.2-.3 3.4.3 3 1.8-1.1 4.4.6 5.7 3.7 1.2 2.9 1.3 2.9 2 .9 1.1-3.7 8.1-5.9 13.2-4.3.1.1-.4 2.2-1.2 4.8-1.8 5.7-1.7 5.6-.6 4.8.5-.3 1.2-.1 1.5.4 1 1.6-1.8 2.7-7.2 2.9-5.1.2-5.4.1-6.5-2.7l-1.1-3-1.8 3c-1.2 2-2.6 2.9-4.3 2.9-3.1 0-3.2-1.2-.2-2.5 2.8-1.3 3.2-7.8.5-8.3-2.1-.4-3.8 3.3-3.8 7.9 0 2.4-.4 2.9-2.4 2.9-1.4 0-2.8-.5-3.1-1-.3-.6-.2-1 .3-1s1.7-2.6 2.6-5.8c1.5-5.5 4.9-12.2 6.2-12.2.3 0 .3 1.6-.1 3.6zm47.6 1.3c-1 1.8-.8 2 1.5 1.8 1.6-.1 3.1.5 3.8 1.6.9 1.5.7 2.1-1 3.5s-1.9 2.2-1.1 4c.6 1.2 1.4 2.2 1.9 2.2.4 0 .8.4.8 1 0 2.3-4 .8-5.5-1.9-2.3-4.5-3.7-4.9-3.3-1 .3 3.1 0 3.4-2.4 3.7-3 .4-3.3 0-1.9-2.6.5-.9 1.5-3.8 2.1-6.4 1.5-5.8 5.2-12.1 5.8-9.6.2.9-.2 2.6-.7 3.7zm42.3-2c3.2 3.3 3.8 8.4 1.7 12.5-1.5 2.7-7.5 6.1-9.1 5.1-1.7-1-1.1-3.5.8-3.5 1 0 2.8-.7 4-1.6 3.1-2.1 3.1-8.7 0-10.8-3.2-2.2-3.5-2.1-4.3 2.1-.8 4.7-4.2 11.2-6 11.9-4.4 1.7-7.9-5.8-5.5-11.7 2-4.6 5.6-6.9 10.9-6.9 3.9 0 5.2.5 7.5 2.9zm-60.9.2c0 .7-.8 1.5-1.7 1.7-1.8.3-2.5-1.8-1.1-3.2 1-1 2.8-.1 2.8 1.5zm-1.9 9c-.4 2.7-.4 4.9-.2 4.9 1.5 0 5.1-4.9 4.7-6.5-.7-3.9 6.2-6.2 7.4-2.4.7 2.2-.5 4.3-1.2 2.1-.3-.6-1.2-1.2-2.1-1.2-1.3 0-1 .6 1.1 2.5 3 2.8 3.3 4.3 1.5 6.7-2 2.3-4.3 2.8-7.2 1.3-1.5-.8-2.8-1-3.1-.4-.9 1.4-4.2 1.1-4.9-.6-.3-.8 0-2.9.6-4.6.8-2.5.8-3.3-.3-4-1.2-.8-1.1-1.2.5-2.4 2.9-2.2 3.9-.8 3.2 4.6zm32 0c-1 7.7 2.9 7.8 5.2 0 1-3.3 4.2-7.6 4.2-5.7 0 3-4.4 15.4-6.2 17.3-2.4 2.6-4.8 3-4.8.8 0-.8.4-1.5.8-1.5.5 0 1.7-.7 2.8-1.5 1.4-1.1 1.5-1.5.4-1.4-5.2.5-7.1-2.2-5.1-7.4.9-2.2.8-2.7-.4-2.7-2 0-1.9-1.7.2-2.9 2.8-1.5 3.6-.2 2.9 5z"/><path d="M222.3 211.7c.9.2 2.5.2 3.5 0 .9-.3.1-.5-1.8-.5-1.9 0-2.7.2-1.7.5zm26 6c1.5.2 3.7.2 5 0 1.2-.2 0-.4-2.8-.4-2.7 0-3.8.2-2.2.4zM127 219.9c-1.3 2.6-1.3 5.8.2 6.7 1.5 1 4.8-3.2 4.8-6.2s-3.4-3.3-5-.5zm35.1-.5c-.9 1.1-.6 1.2 1.4.8 1.4-.2 2.5-.8 2.5-1.3 0-1.4-2.6-1.1-3.9.5zm30-4.9c-2.1 1.9-3.1 3.6-3.1 5.5 0 3.3 1.5 4.7 3.4 3.1 1.5-1.2 4.2-9.8 3.4-10.7-.3-.3-2 .7-3.7 2.1zm-44.1 10c-1 1.2-.9 1.6.5 2.1 1.9.8 4-.9 3.1-2.5-1-1.5-2.1-1.4-3.6.4z"/></svg>